<mxfile host="app.diagrams.net" agent="Mozilla/5.0 (Windows NT 10.0; Win64; x64) AppleWebKit/537.36 (KHTML, like Gecko) Chrome/134.0.0.0 Safari/537.36 Edg/134.0.0.0" version="26.1.2">
  <diagram name="第 1 页" id="_x2EYsXEgGrVKUQgrtQP">
    <mxGraphModel dx="946" dy="1001" grid="0" gridSize="10" guides="1" tooltips="1" connect="1" arrows="1" fold="1" page="0" pageScale="1" pageWidth="827" pageHeight="1169" background="light-dark(#FFFFFF,#121212)" math="0" shadow="0">
      <root>
        <mxCell id="0" />
        <mxCell id="1" parent="0" />
        <mxCell id="Cq-6Rzc9O6ilL2gWOlRI-1" value="customer" style="swimlane;childLayout=stackLayout;horizontal=1;startSize=50;horizontalStack=0;rounded=1;fontSize=14;fontStyle=0;strokeWidth=2;resizeParent=0;resizeLast=1;shadow=0;dashed=0;align=center;arcSize=4;whiteSpace=wrap;html=1;fillColor=#dae8fc;strokeColor=#6c8ebf;" parent="1" vertex="1">
          <mxGeometry x="70" y="90" width="160" height="100" as="geometry" />
        </mxCell>
        <mxCell id="Cq-6Rzc9O6ilL2gWOlRI-2" value="&lt;u&gt;&lt;font style=&quot;font-size: 15px;&quot;&gt;customer_ID&lt;/font&gt;&lt;/u&gt;&lt;div&gt;&lt;font style=&quot;font-size: 15px;&quot;&gt;name&lt;/font&gt;&lt;/div&gt;" style="align=left;strokeColor=none;fillColor=none;spacingLeft=4;spacingRight=4;fontSize=12;verticalAlign=top;resizable=0;rotatable=0;part=1;html=1;whiteSpace=wrap;" parent="Cq-6Rzc9O6ilL2gWOlRI-1" vertex="1">
          <mxGeometry y="50" width="160" height="50" as="geometry" />
        </mxCell>
        <mxCell id="Cq-6Rzc9O6ilL2gWOlRI-3" value="car" style="swimlane;childLayout=stackLayout;horizontal=1;startSize=50;horizontalStack=0;rounded=1;fontSize=14;fontStyle=0;strokeWidth=2;resizeParent=0;resizeLast=1;shadow=0;dashed=0;align=center;arcSize=4;whiteSpace=wrap;html=1;fillColor=#dae8fc;strokeColor=#6c8ebf;" parent="1" vertex="1">
          <mxGeometry x="400" y="90" width="160" height="110" as="geometry" />
        </mxCell>
        <mxCell id="Cq-6Rzc9O6ilL2gWOlRI-4" value="&lt;u&gt;&lt;font style=&quot;font-size: 15px;&quot;&gt;car_ID&lt;/font&gt;&lt;/u&gt;&lt;div&gt;&lt;div&gt;&lt;font style=&quot;font-size: 15px;&quot;&gt;brand&lt;/font&gt;&lt;/div&gt;&lt;div&gt;&lt;font style=&quot;font-size: 15px;&quot;&gt;model&lt;/font&gt;&lt;/div&gt;&lt;/div&gt;" style="align=left;strokeColor=none;fillColor=none;spacingLeft=4;spacingRight=4;fontSize=12;verticalAlign=top;resizable=0;rotatable=0;part=1;html=1;whiteSpace=wrap;" parent="Cq-6Rzc9O6ilL2gWOlRI-3" vertex="1">
          <mxGeometry y="50" width="160" height="60" as="geometry" />
        </mxCell>
        <mxCell id="Cq-6Rzc9O6ilL2gWOlRI-5" style="edgeStyle=orthogonalEdgeStyle;rounded=0;orthogonalLoop=1;jettySize=auto;html=1;exitX=0.5;exitY=1;exitDx=0;exitDy=0;" parent="Cq-6Rzc9O6ilL2gWOlRI-3" source="Cq-6Rzc9O6ilL2gWOlRI-4" target="Cq-6Rzc9O6ilL2gWOlRI-4" edge="1">
          <mxGeometry relative="1" as="geometry" />
        </mxCell>
        <mxCell id="Cq-6Rzc9O6ilL2gWOlRI-6" value="accident" style="swimlane;childLayout=stackLayout;horizontal=1;startSize=50;horizontalStack=0;rounded=1;fontSize=14;fontStyle=0;strokeWidth=2;resizeParent=0;resizeLast=1;shadow=0;dashed=0;align=center;arcSize=4;whiteSpace=wrap;html=1;fillColor=#dae8fc;strokeColor=#6c8ebf;" parent="1" vertex="1">
          <mxGeometry x="400" y="-170" width="160" height="120" as="geometry" />
        </mxCell>
        <mxCell id="Cq-6Rzc9O6ilL2gWOlRI-7" value="&lt;font style=&quot;font-size: 15px;&quot;&gt;&lt;u&gt;accident_id&lt;/u&gt;&lt;/font&gt;&lt;div&gt;&lt;font style=&quot;font-size: 15px;&quot;&gt;location&lt;/font&gt;&lt;/div&gt;&lt;div&gt;&lt;font style=&quot;font-size: 15px;&quot;&gt;date&lt;/font&gt;&lt;/div&gt;" style="align=left;strokeColor=none;fillColor=none;spacingLeft=4;spacingRight=4;fontSize=12;verticalAlign=top;resizable=0;rotatable=0;part=1;html=1;whiteSpace=wrap;" parent="Cq-6Rzc9O6ilL2gWOlRI-6" vertex="1">
          <mxGeometry y="50" width="160" height="70" as="geometry" />
        </mxCell>
        <mxCell id="Cq-6Rzc9O6ilL2gWOlRI-11" value="&lt;span style=&quot;font-size: 15px;&quot;&gt;cus_car&lt;/span&gt;" style="shape=rhombus;perimeter=rhombusPerimeter;whiteSpace=wrap;html=1;align=center;" parent="1" vertex="1">
          <mxGeometry x="260" y="110" width="120" height="60" as="geometry" />
        </mxCell>
        <mxCell id="Cq-6Rzc9O6ilL2gWOlRI-13" value="" style="endArrow=none;html=1;rounded=0;" parent="1" edge="1">
          <mxGeometry relative="1" as="geometry">
            <mxPoint x="380" y="140" as="sourcePoint" />
            <mxPoint x="400" y="140" as="targetPoint" />
          </mxGeometry>
        </mxCell>
        <mxCell id="Cq-6Rzc9O6ilL2gWOlRI-14" value="&lt;font style=&quot;font-size: 15px;&quot;&gt;car_acc&lt;/font&gt;" style="shape=rhombus;perimeter=rhombusPerimeter;whiteSpace=wrap;html=1;align=center;" parent="1" vertex="1">
          <mxGeometry x="410" y="-10" width="120" height="60" as="geometry" />
        </mxCell>
        <mxCell id="Cq-6Rzc9O6ilL2gWOlRI-16" value="" style="endArrow=none;html=1;rounded=0;entryX=0.5;entryY=1;entryDx=0;entryDy=0;" parent="1" edge="1">
          <mxGeometry width="50" height="50" relative="1" as="geometry">
            <mxPoint x="470" y="-10" as="sourcePoint" />
            <mxPoint x="469.83" y="-50" as="targetPoint" />
          </mxGeometry>
        </mxCell>
        <mxCell id="Cq-6Rzc9O6ilL2gWOlRI-17" value="" style="endArrow=none;html=1;rounded=0;exitX=0.579;exitY=0.117;exitDx=0;exitDy=0;exitPerimeter=0;strokeColor=none;" parent="1" source="Cq-6Rzc9O6ilL2gWOlRI-14" edge="1">
          <mxGeometry width="50" height="50" relative="1" as="geometry">
            <mxPoint x="430" as="sourcePoint" />
            <mxPoint x="480" y="-50" as="targetPoint" />
          </mxGeometry>
        </mxCell>
        <mxCell id="Cq-6Rzc9O6ilL2gWOlRI-20" value="pol_pay" style="shape=rhombus;double=1;perimeter=rhombusPerimeter;whiteSpace=wrap;html=1;align=center;" parent="1" vertex="1">
          <mxGeometry x="580" y="350" width="120" height="60" as="geometry" />
        </mxCell>
        <mxCell id="Cq-6Rzc9O6ilL2gWOlRI-21" value="" style="endArrow=none;html=1;rounded=0;entryX=0.5;entryY=1;entryDx=0;entryDy=0;" parent="1" edge="1">
          <mxGeometry width="50" height="50" relative="1" as="geometry">
            <mxPoint x="470" y="90" as="sourcePoint" />
            <mxPoint x="469.83" y="50" as="targetPoint" />
          </mxGeometry>
        </mxCell>
        <mxCell id="Cq-6Rzc9O6ilL2gWOlRI-22" value="policy" style="swimlane;childLayout=stackLayout;horizontal=1;startSize=50;horizontalStack=0;rounded=1;fontSize=14;fontStyle=0;strokeWidth=2;resizeParent=0;resizeLast=1;shadow=0;dashed=0;align=center;arcSize=4;whiteSpace=wrap;html=1;fillColor=#dae8fc;strokeColor=#6c8ebf;" parent="1" vertex="1">
          <mxGeometry x="390" y="340" width="160" height="80" as="geometry" />
        </mxCell>
        <mxCell id="Cq-6Rzc9O6ilL2gWOlRI-23" value="&lt;u&gt;&lt;font style=&quot;font-size: 15px;&quot;&gt;policy_ID&lt;/font&gt;&lt;/u&gt;" style="align=left;strokeColor=none;fillColor=none;spacingLeft=4;spacingRight=4;fontSize=12;verticalAlign=top;resizable=0;rotatable=0;part=1;html=1;whiteSpace=wrap;" parent="Cq-6Rzc9O6ilL2gWOlRI-22" vertex="1">
          <mxGeometry y="50" width="160" height="30" as="geometry" />
        </mxCell>
        <mxCell id="Cq-6Rzc9O6ilL2gWOlRI-24" value="&lt;font style=&quot;font-size: 15px;&quot;&gt;car_pol&lt;/font&gt;" style="shape=rhombus;perimeter=rhombusPerimeter;whiteSpace=wrap;html=1;align=center;" parent="1" vertex="1">
          <mxGeometry x="410" y="240" width="120" height="60" as="geometry" />
        </mxCell>
        <mxCell id="Cq-6Rzc9O6ilL2gWOlRI-25" value="" style="endArrow=none;html=1;rounded=0;entryX=0.5;entryY=1;entryDx=0;entryDy=0;" parent="1" edge="1">
          <mxGeometry width="50" height="50" relative="1" as="geometry">
            <mxPoint x="470" y="240" as="sourcePoint" />
            <mxPoint x="469.83" y="200" as="targetPoint" />
          </mxGeometry>
        </mxCell>
        <mxCell id="Cq-6Rzc9O6ilL2gWOlRI-26" value="" style="endArrow=none;html=1;rounded=0;entryX=0.5;entryY=1;entryDx=0;entryDy=0;" parent="1" edge="1">
          <mxGeometry width="50" height="50" relative="1" as="geometry">
            <mxPoint x="470" y="340" as="sourcePoint" />
            <mxPoint x="469.83" y="300" as="targetPoint" />
          </mxGeometry>
        </mxCell>
        <mxCell id="Cq-6Rzc9O6ilL2gWOlRI-30" value="premium_payments" style="swimlane;fontStyle=0;childLayout=stackLayout;horizontal=1;startSize=30;horizontalStack=0;resizeParent=1;resizeParentMax=0;resizeLast=0;collapsible=1;marginBottom=0;whiteSpace=wrap;html=1;rounded=1;fillColor=#dae8fc;strokeColor=#6c8ebf;" parent="1" vertex="1">
          <mxGeometry x="750" y="330" width="170" height="120" as="geometry" />
        </mxCell>
        <mxCell id="Cq-6Rzc9O6ilL2gWOlRI-41" value="" style="endArrow=none;dashed=1;html=1;rounded=0;entryX=0.521;entryY=0.956;entryDx=0;entryDy=0;entryPerimeter=0;" parent="Cq-6Rzc9O6ilL2gWOlRI-30" target="Cq-6Rzc9O6ilL2gWOlRI-31" edge="1">
          <mxGeometry width="50" height="50" relative="1" as="geometry">
            <mxPoint y="60" as="sourcePoint" />
            <mxPoint x="50" y="10" as="targetPoint" />
          </mxGeometry>
        </mxCell>
        <mxCell id="Cq-6Rzc9O6ilL2gWOlRI-31" value="&lt;font style=&quot;font-size: 15px;&quot;&gt;payment_ID&lt;/font&gt;" style="text;strokeColor=none;fillColor=none;align=left;verticalAlign=middle;spacingLeft=4;spacingRight=4;overflow=hidden;points=[[0,0.5],[1,0.5]];portConstraint=eastwest;rotatable=0;whiteSpace=wrap;html=1;" parent="Cq-6Rzc9O6ilL2gWOlRI-30" vertex="1">
          <mxGeometry y="30" width="170" height="30" as="geometry" />
        </mxCell>
        <mxCell id="Cq-6Rzc9O6ilL2gWOlRI-32" value="&lt;font style=&quot;font-size: 15px;&quot;&gt;due_date&lt;/font&gt;" style="text;strokeColor=none;fillColor=none;align=left;verticalAlign=middle;spacingLeft=4;spacingRight=4;overflow=hidden;points=[[0,0.5],[1,0.5]];portConstraint=eastwest;rotatable=0;whiteSpace=wrap;html=1;" parent="Cq-6Rzc9O6ilL2gWOlRI-30" vertex="1">
          <mxGeometry y="60" width="170" height="30" as="geometry" />
        </mxCell>
        <mxCell id="Cq-6Rzc9O6ilL2gWOlRI-33" value="&lt;font style=&quot;font-size: 15px;&quot;&gt;payment_received_time&lt;/font&gt;" style="text;strokeColor=none;fillColor=none;align=left;verticalAlign=middle;spacingLeft=4;spacingRight=4;overflow=hidden;points=[[0,0.5],[1,0.5]];portConstraint=eastwest;rotatable=0;whiteSpace=wrap;html=1;" parent="Cq-6Rzc9O6ilL2gWOlRI-30" vertex="1">
          <mxGeometry y="90" width="170" height="30" as="geometry" />
        </mxCell>
        <mxCell id="Cq-6Rzc9O6ilL2gWOlRI-35" value="" style="rounded=1;whiteSpace=wrap;html=1;strokeWidth=1;fillColor=none;" parent="1" vertex="1">
          <mxGeometry x="740" y="320" width="190" height="140" as="geometry" />
        </mxCell>
        <mxCell id="Cq-6Rzc9O6ilL2gWOlRI-46" value="" style="line;strokeWidth=1;rotatable=0;dashed=0;labelPosition=right;align=left;verticalAlign=middle;spacingTop=0;spacingLeft=6;points=[];portConstraint=eastwest;" parent="1" vertex="1">
          <mxGeometry x="698" y="375" width="42" height="10" as="geometry" />
        </mxCell>
        <mxCell id="Cq-6Rzc9O6ilL2gWOlRI-48" value="1..1" style="text;html=1;align=center;verticalAlign=middle;whiteSpace=wrap;rounded=0;rotation=0;" parent="1" vertex="1">
          <mxGeometry x="461" y="-42" width="60" height="30" as="geometry" />
        </mxCell>
        <mxCell id="Cq-6Rzc9O6ilL2gWOlRI-49" value="0..*" style="text;html=1;align=center;verticalAlign=middle;whiteSpace=wrap;rounded=0;rotation=0;" parent="1" vertex="1">
          <mxGeometry x="463" y="55" width="60" height="30" as="geometry" />
        </mxCell>
        <mxCell id="Cq-6Rzc9O6ilL2gWOlRI-51" value="" style="endArrow=none;html=1;rounded=0;exitX=1;exitY=0;exitDx=0;exitDy=0;" parent="1" source="Cq-6Rzc9O6ilL2gWOlRI-2" edge="1">
          <mxGeometry width="50" height="50" relative="1" as="geometry">
            <mxPoint x="210" y="190" as="sourcePoint" />
            <mxPoint x="260" y="140" as="targetPoint" />
          </mxGeometry>
        </mxCell>
        <mxCell id="Cq-6Rzc9O6ilL2gWOlRI-52" value="1..*" style="text;html=1;align=center;verticalAlign=middle;whiteSpace=wrap;rounded=0;rotation=0;" parent="1" vertex="1">
          <mxGeometry x="217" y="116" width="60" height="30" as="geometry" />
        </mxCell>
        <mxCell id="Cq-6Rzc9O6ilL2gWOlRI-53" value="1..1" style="text;html=1;align=center;verticalAlign=middle;whiteSpace=wrap;rounded=0;rotation=0;" parent="1" vertex="1">
          <mxGeometry x="355" y="116" width="60" height="30" as="geometry" />
        </mxCell>
        <mxCell id="Cq-6Rzc9O6ilL2gWOlRI-54" value="" style="endArrow=none;html=1;rounded=0;entryX=0;entryY=0.5;entryDx=0;entryDy=0;" parent="1" target="Cq-6Rzc9O6ilL2gWOlRI-20" edge="1">
          <mxGeometry width="50" height="50" relative="1" as="geometry">
            <mxPoint x="550" y="380" as="sourcePoint" />
            <mxPoint x="600" y="330" as="targetPoint" />
          </mxGeometry>
        </mxCell>
        <mxCell id="Cq-6Rzc9O6ilL2gWOlRI-55" value="1..*" style="text;html=1;align=center;verticalAlign=middle;whiteSpace=wrap;rounded=0;rotation=0;" parent="1" vertex="1">
          <mxGeometry x="538" y="356" width="60" height="30" as="geometry" />
        </mxCell>
        <mxCell id="Cq-6Rzc9O6ilL2gWOlRI-56" value="1..*" style="text;html=1;align=center;verticalAlign=middle;whiteSpace=wrap;rounded=0;rotation=0;" parent="1" vertex="1">
          <mxGeometry x="454" y="303" width="60" height="30" as="geometry" />
        </mxCell>
        <mxCell id="Cq-6Rzc9O6ilL2gWOlRI-57" value="1..1" style="text;html=1;align=center;verticalAlign=middle;whiteSpace=wrap;rounded=0;rotation=0;" parent="1" vertex="1">
          <mxGeometry x="454" y="210" width="60" height="30" as="geometry" />
        </mxCell>
        <mxCell id="Cq-6Rzc9O6ilL2gWOlRI-58" value="1..1" style="text;html=1;align=center;verticalAlign=middle;whiteSpace=wrap;rounded=0;rotation=0;" parent="1" vertex="1">
          <mxGeometry x="687" y="356" width="60" height="30" as="geometry" />
        </mxCell>
      </root>
    </mxGraphModel>
  </diagram>
</mxfile>
